<?xml version="1.0" standalone="no"?><!DOCTYPE svg PUBLIC "-//W3C//DTD SVG 1.1//EN" "http://www.w3.org/Graphics/SVG/1.1/DTD/svg11.dtd"><svg t="1700666887748" class="icon" viewBox="0 0 1024 1024" version="1.1" xmlns="http://www.w3.org/2000/svg" p-id="4514" data-spm-anchor-id="a313x.search_index.0.i4.72a93a81VrRCvZ" xmlns:xlink="http://www.w3.org/1999/xlink" width="200" height="200"><path d="M885.44 450.89s14.13-75-33.49-115.51c0 0-14.19-26.34-50.66-5.07L160.93 529.92s-34.63 33.23 7.9 138.9c3 11.4 22.06 97.08 97.64 48.93L885.39 458z" fill="#6A1F0C" p-id="4515" data-spm-anchor-id="a313x.search_index.0.i2.72a93a81VrRCvZ" class="selected"></path><path d="M224.94 732.81a43.06 43.06 0 0 1-16-3c-18.51-7.33-32.07-27.4-40.29-59.64l-0.32-1.24c-22-54.63-23-89.58-19.91-109.28 3.33-21.44 11.79-29.77 12.15-30.11l0.08-0.08h0.11l640.33-199.61c13.05-7.6 24.74-10 34.74-7.21a28.3 28.3 0 0 1 16.52 12.42c24.67 21 32.49 51.43 34.71 73.22a167.27 167.27 0 0 1-1.11 42.65l-0.05 7.38-0.3 0.13-618.94 259.77c-15.24 9.72-29.22 14.6-41.72 14.6z m-63.75-202.45c-0.87 0.9-8.7 9.52-11.79 29.58-3 19.56-2 54.29 19.89 108.69l0.34 1.31c8.13 31.92 21.49 51.76 39.68 59 15.84 6.27 35 2.38 56.88-11.57l618.7-259.68 0.06-6.85a165.75 165.75 0 0 0 1.1-42.44c-2.2-21.62-10-51.77-34.43-72.59l-0.12-0.14a27.74 27.74 0 0 0-16-12c-9.74-2.73-21.17-0.33-34 7.15h-0.1z" fill="" p-id="4516"></path><path d="M158.9 531.95s-23.3 24.32-20.26 78c3.19 7.9 1.15 73 46.5 122.86 3.54 3.89 6.88 8 11.65 10.2 12.25 5.72 26.34 22.31 96.87-16.54l578.56-242.15s14.18-12.16 13.17-26.32L248.07 725.47c-4.46 4.67-72 45.07-95.24-126.65-2.19-16.12-10.6-43.53 6.07-66.87z" fill="#521E18" p-id="4517"></path><path d="M223.38 752c-11.16 0-17.65-3.57-22.95-6.48-1.34-0.74-2.61-1.44-3.85-2-4.34-2-7.55-5.6-10.66-9l-1.15-1.27c-36.68-40.3-42.5-91-45-112.65-0.59-5.16-1-8.89-1.61-10.36v-0.16c-3-53.3 20.17-78.15 20.4-78.39l0.77 0.64c-14.07 19.7-10.15 42.19-7.28 58.61 0.49 2.83 1 5.5 1.29 7.91 13.12 96.89 40.31 125.16 60.81 131.82 17.63 5.73 32-3.81 33.58-5.44l0.17-0.12 638-267.76v0.7c1 14.27-12.76 26.26-13.35 26.76l-0.13 0.08-578.57 242.06C258.57 746.38 237.33 752 223.38 752z m-84.25-142.14c0.62 1.63 1 5.19 1.65 10.54 2.47 21.55 8.27 72 44.73 112.09l1.15 1.28c3.18 3.53 6.18 6.87 10.34 8.81 1.27 0.59 2.55 1.3 3.91 2 11.73 6.44 29.45 16.17 92.51-18.57L872 483.89c1-0.85 13.44-12.16 13-25.18L248.35 725.9c-2.91 2.92-17.76 11.08-34.54 5.63-20.77-6.74-48.3-35.23-61.49-132.64-0.32-2.39-0.79-5.05-1.28-7.87-2.45-14-5.67-32.47 2.07-49.95-6.61 11.35-15.94 33.93-13.98 68.79z" fill="" p-id="4518"></path><path d="M227.42 731.41h-1.86a52.71 52.71 0 0 1-36.21-15.16c-11.88-11.53-17-26.89-15.71-30.28-22.85-54.22-26.61-91.17-25.74-112.63 0.89-21.87 6.47-32.31 7.4-33.9a6.69 6.69 0 0 1 0.79-5.65c6.61-10.8 41.33-16 42.8-16.2l20.41-6.37-0.07 0.75c-6.23 68.5 12.47 118.42 29.25 148.23 18.18 32.31 38.09 48.62 38.29 48.78l0.53 0.43-0.57 0.38c-21.84 14.35-41.73 21.62-59.31 21.62z m-9.24-218.81l-19.06 5.94c-0.43 0.07-35.8 5.35-42.17 15.75a5.66 5.66 0 0 0-0.63 5l0.08 0.22-0.13 0.2c-0.06 0.1-6.46 10.59-7.38 33.73-0.85 21.37 2.93 58.2 25.75 112.29l0.1 0.24-0.13 0.22c-1.1 1.79 2.6 16.83 15.43 29.28s42.57 28.41 95.57-6.19c-3.27-2.81-21.36-19.05-38-48.58-16.78-29.8-35.48-79.7-29.43-148.1zM866.88 466.29l-0.15-0.55c-4.76-17.79-38.88-49.59-41.32-51.85-62.82-2.12-93.58-16.08-108.32-27.43-16.1-12.39-17.18-24.16-17.22-24.65v-0.39l0.37-0.12 108.66-35.45c0.23-0.11 28.94-13.59 47.93 13.32 0 0 10.39 10.52 19.09 30.34 8 18.27 16.26 48.47 10 88.54v0.28z m-166-104.17c0.34 2.13 2.68 12.74 16.89 23.63 14.66 11.23 45.26 25.06 107.82 27.15h0.18l0.14 0.13c1.48 1.36 36.08 33.18 41.6 51.9l17.4-7.3C891.12 418 883 388.07 875 370c-8.62-19.66-18.85-30-19-30.15-18.56-26.29-46.52-13.17-46.8-13z" fill="" p-id="4519"></path><path d="M853.94 473.5c-0.93 0-2-1.64-5.13-6.58-5.88-9.32-16.81-26.64-35.55-42.59H812c-30.16 0.3-51.93-3.5-64.87-6.75-36.53-9.16-56.84-26.5-60.35-51.52l-0.06-0.42 14.14-4.55v0.65c0 0.11 0.67 10.7 16.27 22.25 14.46 10.7 45 24.39 108.51 28.9h0.17l0.13 0.12c1.5 1.37 36.77 33.81 41.75 52.45l0.1 0.39-12.94 6.62a1.11 1.11 0 0 1-0.73 1z m-40.71-50.18h0.41l0.14 0.12c18.94 16.08 30 33.55 35.89 42.94 1.8 2.85 3.5 5.55 4.19 6a2.26 2.26 0 0 0 0.06-0.32v-0.27l12.69-6.49c-5.15-17.88-38.86-49.28-41.22-51.47-63.76-4.55-94.47-18.38-109-29.18-13.87-10.32-16.11-19.74-16.47-22.26l-12.13 3.9c3.62 24.36 23.65 41.27 59.55 50.27 12.89 3.23 34.59 7 64.62 6.72z" fill="" p-id="4520"></path><path d="M208.385 542.692l506.371-159.076 0.3 0.955-506.371 159.075zM208.397 569.927l529.887-172.478 0.309 0.951-529.886 172.478zM217.333 599.42l553.918-192.245 0.328 0.945-553.918 192.244zM222.48 626.601L818.462 412.74l0.338 0.94-595.98 213.862zM236.774 655.149L835.699 422.84l0.361 0.932-598.925 232.308zM251.751 685.369l599.532-245.397 0.379 0.925L252.13 686.294z" fill="#FFFFFD" p-id="4521" data-spm-anchor-id="a313x.search_index.0.i3.72a93a81VrRCvZ" class="selected"></path><path d="M206.67 549.72a5.37 5.37 0 1 1 5.37-5.37 5.38 5.38 0 0 1-5.37 5.37z m0-9.74a4.37 4.37 0 1 0 4.37 4.37 4.38 4.38 0 0 0-4.37-4.35zM207.54 578.38a6.24 6.24 0 1 1 6.24-6.24 6.25 6.25 0 0 1-6.24 6.24z m0-11.48a5.24 5.24 0 1 0 5.24 5.24 5.25 5.25 0 0 0-5.24-5.24zM213.28 607a6.24 6.24 0 1 1 6.24-6.24 6.25 6.25 0 0 1-6.24 6.24z m0-11.48a5.24 5.24 0 1 0 5.24 5.24 5.25 5.25 0 0 0-5.24-5.21zM222.73 635.69a6.24 6.24 0 1 1 6.24-6.24 6.25 6.25 0 0 1-6.24 6.24z m0-11.48a5.24 5.24 0 1 0 5.24 5.24 5.25 5.25 0 0 0-5.24-5.24zM236.92 664.74a6.24 6.24 0 1 1 6.24-6.24 6.25 6.25 0 0 1-6.24 6.24z m0-11.48a5.24 5.24 0 1 0 5.24 5.24 5.25 5.25 0 0 0-5.24-5.24zM254.14 692.2a6.24 6.24 0 1 1 6.24-6.24 6.25 6.25 0 0 1-6.24 6.24z m0-11.48a5.24 5.24 0 1 0 5.24 5.24 5.25 5.25 0 0 0-5.24-5.24zM785.82 387.17l2.58-3.39a3.43 3.43 0 0 0 0.81-3.2c-0.86-2.69-5.52-4.18-5.57-4.19-5.63-0.59-8.34-8.92-9.05-11.54-4.24 3-15.63 3.53-17.84 3.61-1 3.26-2.23 4.85-3.59 4.85-2 0-3.41-3.57-3.86-4.91-4.91 0.79-21.42-5.86-22.14-6.16l-2.38-1h46.47c3.9-3.87 8.17-5.83 12.69-5.83h0.06c6.08 0 10.86 3.56 12.74 5.19v-6.84h6.13l-0.65 5.19 7.2-2.29 1.09 4.8 7.48 5.77-14.52 0.36v6.24L791.66 366c1.08 1.89-0.53 5.44-1.17 6.71a5.63 5.63 0 0 1 2.75 4.27c0.25 3.8-4 7.29-4.13 7.44zM775.17 363l0.19 0.86c0 0.11 2.55 10.93 8.48 11.56 0.31 0.09 5.31 1.69 6.32 4.86a3.7 3.7 0 0 1 0.16 1.51 7.29 7.29 0 0 0 1.93-4.69 4.9 4.9 0 0 0-2.67-3.74l-0.4-0.25 0.23-0.41c0.69-1.26 2.4-5.14 1.23-6.36-0.48-0.5-2-1-6.62 1.25l-0.24 0.12-0.23-0.13c-0.37-0.21-3.58-2.15-3.15-4 0.3-1.3 2.1-2 5.67-2.28h0.17l16.24 10.7v-5.36l12.67-0.31-5.53-4.27-0.93-4.09-7.69 2.44 0.7-5.62h-4V363l-0.86-0.88c-0.05-0.06-5.59-5.65-12.9-5.68h-0.07c-4.3 0-8.38 1.91-12.13 5.68l-0.15 0.15H730c6.08 2.32 16.73 6 19.49 5.06l0.49-0.16 0.15 0.49c0.59 1.93 1.92 4.64 3.05 4.64 0.41 0 1.5-0.44 2.75-4.48l0.11-0.34h0.36c0.15 0 14.57-0.44 18.17-3.86z m10.79-0.72c-3.9 0.3-4.51 1.14-4.59 1.49-0.19 0.84 1.44 2.15 2.45 2.78 2.76-1.31 4.81-1.85 6.18-1.61z" fill="" p-id="4522"></path><path d="M817.46 365.41l-8.69-7.67-2.5-1.43-0.63-2.53h-5.85v-6.31l15.48-3.13-1.53 4 4.34-4.21 2.81 8.62 4.31-0.81-5.36-10.39 16.37-5.4 5.24 14.53-10.14 3.95 1.8 5.4-4.45-0.74-1 3h-7.31l0.34-5.9-5.88-1.4z m-10.33-9.76l2.26 1.3 6.3 5.56-2.26-8.91 8.3 2-0.33 5.68h5.52l1-3.15 3.66 0.61L830 354l10.12-3.94-4.58-12.7-14.34 4.73 5.44 10.55-6.5 1.22-2.59-7.93-6.47 6.26 2.52-6.51-12.89 2.61v4.49h5.63z" fill="" p-id="4523"></path><path d="M881.69 427l-10.6-8.79c0 1.21-0.19 3-1.26 4a2.87 2.87 0 0 1-2.74 0.51c-0.15 0-2.72-0.94-3-2.91-0.2-1.28 0.61-2.64 2.39-4l-13.33-13.27 0.27-3.4c-1.77 1.35-5.74 4-9.2 3.57a5.2 5.2 0 0 1-3.65-2.23l-12-0.37 9.8-7.54 2.1-4.2h0.28c0.15 0 3.61-0.28 4.84 1.78 0.78 1.31 0.43 3.2-1 5.62 1.18 0.55 4.35 1.75 6.44-0.1a5.34 5.34 0 0 0-0.51-4.67c-1.57-2.56-6.17-5.72-19.16-6.29h-0.37l-1.42-5.74-7.77-10.33 10.54 1.67-3.44-5 5.08-1.58 1.53-9.79h8.82l-3.64 4.05h4.21l4.35 11.63-8.15 3.23h3l-1.28 8.84c2.7 0.36 14.57 2.87 17 19.14l22.53 25.56z m-11.82-11.1l7.54 6.25-18.5-21V401c-2.61-17.6-16.1-18.46-16.68-18.49h-0.55l1.27-8.75h-7.1l12.11-4.8-3.76-10.06h-5.76l3.64-4.05h-5.73l-1.49 9.56-4.38 1.36 4 5.8-10.48-1.7 6.44 8.62 1.26 5.11c10.58 0.5 17.18 2.78 19.61 6.77a6.31 6.31 0 0 1 0.52 5.68l-0.11 0.16c-3.13 2.92-8 0.19-8.16 0.07l-0.46-0.26 0.29-0.44c1.48-2.26 1.93-4 1.32-5s-2.65-1.33-3.62-1.31l-2 4-7.67 5.9 9.67 0.3 0.14 0.21a4.24 4.24 0 0 0 3.09 2c4.06 0.53 9.28-4 9.33-4.07l0.93-0.82-0.42 5.33 13.84 13.7-0.47 0.35c-1.75 1.28-2.6 2.47-2.45 3.44 0.21 1.37 2.3 2.1 2.32 2.1a1.87 1.87 0 0 0 1.79-0.3c1-0.94 1-3.42 0.87-4.29z" fill="" p-id="4524"></path><path d="M808.86 402.94c-0.45 0-0.59-0.27-0.94-4.52h-4.37l-1.35-11.06h-2.42V375.6l6.36 1.67a5.4 5.4 0 0 1 1.42-3.67c2.19-2.41 6.57-3.28 13-2.58h0.37l2.33 12.38 6.19-1.9-2.82 7.26-0.22 0.07c-4.7 1.57-16.88 6.66-16.88 11.35 0 2.26 0 2.69-0.6 2.71z m-4.43-5.52h4.41v0.46c0 0.22 0 0.44 0.06 0.66 2.36-5.34 15-9.87 17-10.54l1.91-4.9-5.29 1.62-2.4-12.72c-7.36-0.74-10.49 0.83-11.82 2.3a4.37 4.37 0 0 0-1.12 3.56l0.17 0.79-6.57-1.73v9.47h2.31z" fill="" p-id="4525"></path><path d="M808.07 396.63l-0.47-0.91c-0.15-0.29-3.7-7.29-2.41-13.82 0.06-0.41 1-5.82 7.61-5.48h0.47v2.5h6.4v0.48c0 0.23 0.14 5.74-3.09 9.07a8.17 8.17 0 0 1-5.87 2.43z m4.14-19.23c-5.38 0-6 4.45-6 4.64-1 4.83 1 10.1 1.88 12.22l2-4.38h0.32a7.31 7.31 0 0 0 5.47-2.12c2.41-2.48 2.76-6.48 2.81-7.86h-6.41v-2.54z" fill="" p-id="4526"></path><path d="M809.55 386.79a1.64 1.64 0 0 1-0.72-0.15l0.44-0.9a1.15 1.15 0 0 0 0.87-0.1c0.77-0.34 2.29-1.63 3.84-6.36l0.95 0.31c-1.3 4-2.8 6.31-4.47 7a2.41 2.41 0 0 1-0.91 0.2z" fill="" p-id="4527"></path></svg>